# xmcd
# 
# Track frame offsets:
#     150
#     13609
#     23835
#     39800
#     56645
#     68897
#     85757
#     95765
#     113965
#     124881
# 
# Disc length: 1826
# 
# Revision: 1
# Processed by: cddbd v1.5.2PL0 Copyright (c) Steve Scherf et al.
# Submitted via: fre:ac v1.0.31
# 
DISCID=7d07200a
DTITLE=Christmas - Gretchen Wilson Christmas In My Heart
DYEAR=2013
DGENRE=Christmas
TTITLE0=Christmas In My Heart
TTITLE1=Santa, I've Been Naughty
TTITLE2=Have Yourself A Merry Little Christmas
TTITLE3=If You See Rudolph
TTITLE4=Nuttin' For Christmas
TTITLE5=Silent Night
TTITLE6=Have A Holly Jolly Christmas
TTITLE7=The Christmas Song
TTITLE8=I Want A Hippopotamus For Christmas
TTITLE9=Blue Christmas
EXTD=
EXTT0=
EXTT1=
EXTT2=
EXTT3=
EXTT4=
EXTT5=
EXTT6=
EXTT7=
EXTT8=
EXTT9=
PLAYORDER=
